inDegrees=no
num_controls=7
num_derivatives=13
num_iterations=105
num_multipliers=7
num_parameters=0
num_slacks=7
num_states=26
objective=0.497124
objective_accelerations=0.032422
objective_balance=0.003292
objective_effort=0.035087
objective_height=0.420825
objective_ligament=0.005499
solver_duration=1201.759112
status=Solve_Succeeded
success=true
DataType=double
version=3
OpenSimVersion=4.5
endheader
time	/jointset/ground_pelvis/pelvis_tilt/value	/jointset/ground_pelvis/pelvis_tx/value	/jointset/ground_pelvis/pelvis_ty/value	/jointset/hip_r/hip_flexion_r/value	/jointset/hip_r/hip_adduction_r/value	/jointset/hip_r/hip_rotation_r/value	/jointset/back/lumbar_extension/value	/jointset/patellofemoral_r/patellar_flexion_r/value	/jointset/knee_r/knee_flexion_r/value	/jointset/knee_r/knee_adduction_r/value	/jointset/knee_r/knee_rotation_r/value	/jointset/ankle_r/ankle_angle_r/value	/jointset/subtalar_r/subtalar_angle_r/value	/jointset/ground_pelvis/pelvis_tilt/speed	/jointset/ground_pelvis/pelvis_tx/speed	/jointset/ground_pelvis/pelvis_ty/speed	/jointset/hip_r/hip_flexion_r/speed	/jointset/hip_r/hip_adduction_r/speed	/jointset/hip_r/hip_rotation_r/speed	/jointset/back/lumbar_extension/speed	/jointset/patellofemoral_r/patellar_flexion_r/speed	/jointset/knee_r/knee_flexion_r/speed	/jointset/knee_r/knee_adduction_r/speed	/jointset/knee_r/knee_rotation_r/speed	/jointset/ankle_r/ankle_angle_r/speed	/jointset/subtalar_r/subtalar_angle_r/speed	/forceset/tau_hip_flexion_r	/forceset/tau_hip_adduction_r	/forceset/tau_hip_rotation_r	/forceset/tau_knee_flexion_r	/forceset/tau_ankle_angle_r	/forceset/tau_subtalar_angle_r	/forceset/tau_lumbar_extension	lambda_cid13_p0	lambda_cid14_p0	lambda_cid14_p1	lambda_cid14_p2	lambda_cid14_p3	lambda_cid14_p4	lambda_cid14_p5	/jointset/ground_pelvis/pelvis_tilt/accel	/jointset/ground_pelvis/pelvis_tx/accel	/jointset/ground_pelvis/pelvis_ty/accel	/jointset/hip_r/hip_flexion_r/accel	/jointset/hip_r/hip_adduction_r/accel	/jointset/hip_r/hip_rotation_r/accel	/jointset/back/lumbar_extension/accel	/jointset/patellofemoral_r/patellar_flexion_r/accel	/jointset/knee_r/knee_flexion_r/accel	/jointset/knee_r/knee_adduction_r/accel	/jointset/knee_r/knee_rotation_r/accel	/jointset/ankle_r/ankle_angle_r/accel	/jointset/subtalar_r/subtalar_angle_r/accel	gamma_cid13_p0	gamma_cid14_p0	gamma_cid14_p1	gamma_cid14_p2	gamma_cid14_p3	gamma_cid14_p4	gamma_cid14_p5
0.5	-0.09746291718218042	0.05144458421562696	0.863339476739261	0.6936138618567466	-0.2301687487584778	-0.1330353133903814	-0.3171303009958478	0.6888109815682188	0.6888109815682121	0.04134180061133467	0.1745121859267756	0.2635981851556959	0.05657022573538825	-0.2613905447420575	-0.0904850247096992	-0.3274607468077072	1.407702931095343	-0.00847103607084787	0.2568526016718199	-0.6026062092390705	1.668159494458802	1.66815949445865	-0.2783839797089522	3.206607529790153e-05	0.6112033222047752	0.1632079271044492	-0.0744133309964136	-0.01892570147095245	0.008310684584485995	-0.3409419972121606	0.06426065725012431	-0.01041641158271254	0.1346042940926696	-31.96769849610576	-21.58110154419549	-4.394106184583326	-3.3038649154382	3.378505978299444	-670.4430748295583	59.95036436149066	0.06596197853201084	0.2790960242423255	-0.3477456057502585	-0.8580931762608996	-0.05409813760889158	-0.5441638752674801	1.294281648578911	-1.133475779661009	-1.133475779661019	0.3963224004745304	-0.002569648412138938	-0.471779014920203	-0.06709300179468079	-1.087991542719577e-07	-1.583200834966117e-07	5.169887430731797e-07	-1.241802442151537e-06	4.252687225082046e-08	-2.15442197543255e-07	8.352275346234272e-07
0.51	-0.1000730868167198	0.05055381434379575	0.8600482208362047	0.7076457185224613	-0.2302569044456104	-0.1304928966471706	-0.3230909038655764	0.7054333239384555	0.7054333239384772	0.03858015010055417	0.1745123081078294	0.2696854805686499	0.05819758021870244	-0.2606079438738361	-0.08765827616073518	-0.330715379458509	1.39847040606875	-0.009162555410736429	0.2516394196535475	-0.5894320171882227	1.656067559688624	1.656067559688515	-0.2739101648586381	-1.362574474057127e-05	0.6061692194036928	0.1622302529401235	-0.07968746880224174	-0.01712568156238665	0.008972633533595889	-0.343789659020655	0.06004171111474457	-0.009835906661506333	0.139464919996633	-31.01685807073789	-23.07953537668235	-4.522631295625224	-3.148277357837854	3.96255302003795	-673.6684939332993	59.7316634374051	0.08971210769422946	0.2860749425182059	-0.3031075105698546	-0.9855488353625803	-0.07721279270804339	-0.5087768325173886	1.341340111049122	-1.283244345001655	-1.283244344995012	0.4783083483326498	-0.006685592446167404	-0.5322158506859086	-0.1180828448905543	-9.14318416994486e-08	-1.128944304328535e-07	5.887397212495144e-07	-9.00489367379292e-07	6.825078443855966e-09	-1.652113171919944e-07	7.296496455692856e-07
0.52	-0.1026743698492306	0.04969163409191321	0.8567266615234752	0.7215793066040095	-0.2303520821182505	-0.1280023880176227	-0.3289172943892538	0.7219275085571302	0.7219275085571782	0.03586431720247911	0.1745117500419553	0.2757198369659964	0.05981416231614547	-0.2596132243365389	-0.08476710071996436	-0.3335214287423082	1.38804921426199	-0.00987543317179199	0.2464709789388631	-0.5757637400289237	1.642527944146229	1.642527944146166	-0.2692204571674125	-0.0001039833106376527	0.6006155190832655	0.1610534499302364	-0.08496160660807185	-0.0153256616538204	0.009634582482707179	-0.3466373208291499	0.05582276497936484	-0.009255401740299379	0.1443255459005947	-30.05794203245047	-24.58221937522657	-4.649402195824869	-2.995823956617025	4.532565777343587	-676.9660790861788	59.57594953474599	0.1083857123471171	0.2919814026037051	-0.2580289323497542	-1.095826532294408	-0.05836982184228519	-0.5352156145498588	1.393098670269121	-1.423011934104155	-1.423011934104129	0.4395009686568288	-0.01150279758386357	-0.5756985187891215	-0.106918770906966	-6.436491362976821e-08	-2.132557075091574e-08	8.224863276410022e-07	-2.303593767142357e-07	-7.684859622746248e-08	-5.888403314499656e-08	5.852446465829407e-07
0.53	-0.1052647563973536	0.04885865191030092	0.8533793030231615	0.7354030614491718	-0.2304540105515927	-0.1255653200197449	-0.3346045407524965	0.738279292899175	0.7382792928992515	0.03319430855882396	0.1745111388206042	0.2816962975818602	0.0614187154493643	-0.2584271014717072	-0.08182076099416637	-0.3358716475214277	1.376505439873796	-0.01051846640062755	0.2409778974741068	-0.5616167874541051	1.62759633630935	1.62759633630928	-0.26472254798224	-3.814695264274556e-05	0.5945939229939208	0.159815998170359	-0.09008291322737225	-0.01365194246397418	0.01031459929911348	-0.3496832509532452	0.05185223085210797	-0.00878548932761225	0.1490584909462861	-29.0929992359091	-26.01537576997285	-4.819776480092728	-2.827570159004103	5.078173938895678	-680.3173944950213	59.38859333150776	0.1292743690021186	0.297222289194471	-0.2117253879094601	-1.213097442888445	-0.06840459554025537	-0.5511108502551035	1.435805325869317	-1.563113371869048	-1.563113371869945	0.463883170325127	0.01268210896485555	-0.6278174284369051	-0.1381722783715087	-3.785733500832827e-08	6.467437676970004e-08	1.039143173800874e-06	3.972193168198939e-07	-1.553081050046827e-07	3.771349053124271e-08	4.687769157751319e-07
